<mxfile host="65bd71144e">
    <diagram id="DH7FxIW0LYe9BB56HBlz" name="Page-1">
        <mxGraphModel dx="1474" dy="782" grid="1" gridSize="10" guides="1" tooltips="1" connect="1" arrows="1" fold="1" page="1" pageScale="1" pageWidth="850" pageHeight="1100" math="0" shadow="0">
            <root>
                <mxCell id="0"/>
                <mxCell id="1" parent="0"/>
                <mxCell id="2" value="Catalog - operators - samples" style="rounded=0;whiteSpace=wrap;html=1;align=center;fillColor=#dae8fc;strokeColor=#6c8ebf;fontSize=14;" parent="1" vertex="1">
                    <mxGeometry x="40" y="20" width="280" height="170" as="geometry"/>
                </mxCell>
                <mxCell id="28" style="edgeStyle=none;html=1;exitX=0.5;exitY=0;exitDx=0;exitDy=0;entryX=0.5;entryY=1;entryDx=0;entryDy=0;fontSize=10;" parent="1" source="4" target="2" edge="1">
                    <mxGeometry relative="1" as="geometry"/>
                </mxCell>
                <mxCell id="4" value="Infrastructure - GtiOps - &lt;br&gt;Multi tenancy" style="rounded=0;whiteSpace=wrap;html=1;align=center;fillColor=#d5e8d4;strokeColor=#82b366;fontSize=14;" parent="1" vertex="1">
                    <mxGeometry x="40" y="210" width="280" height="170" as="geometry"/>
                </mxCell>
                <mxCell id="5" value="Solution - GtiOps&amp;nbsp;&lt;br style=&quot;font-size: 14px;&quot;&gt;&lt;br style=&quot;font-size: 14px;&quot;&gt;dev / staging / production" style="rounded=0;whiteSpace=wrap;html=1;align=center;fillColor=#fff2cc;strokeColor=#d6b656;fontSize=14;" parent="1" vertex="1">
                    <mxGeometry x="40" y="410" width="280" height="170" as="geometry"/>
                </mxCell>
                <mxCell id="9" value="OpenShift Cluster" style="swimlane;horizontal=0;" parent="1" vertex="1">
                    <mxGeometry x="402" y="20" width="410" height="380" as="geometry"/>
                </mxCell>
                <mxCell id="12" value="ArgoCD" style="shape=process;whiteSpace=wrap;html=1;backgroundOutline=1;" parent="9" vertex="1">
                    <mxGeometry x="38" y="20" width="82" height="40" as="geometry"/>
                </mxCell>
                <mxCell id="14" value="dev-ns" style="rounded=0;whiteSpace=wrap;html=1;fillColor=#f5f5f5;fontColor=#333333;strokeColor=#666666;align=left;verticalAlign=top;" parent="9" vertex="1">
                    <mxGeometry x="130" y="20" width="250" height="160" as="geometry"/>
                </mxCell>
                <mxCell id="15" value="staging-ns" style="rounded=0;whiteSpace=wrap;html=1;fillColor=#f5f5f5;fontColor=#333333;strokeColor=#666666;verticalAlign=top;align=left;" parent="9" vertex="1">
                    <mxGeometry x="128" y="210" width="252" height="120" as="geometry"/>
                </mxCell>
                <mxCell id="18" value="event-streams" style="shape=process;whiteSpace=wrap;html=1;backgroundOutline=1;fontSize=10;" parent="9" vertex="1">
                    <mxGeometry x="178" y="30" width="172" height="30" as="geometry"/>
                </mxCell>
                <mxCell id="19" value="MQ" style="shape=process;whiteSpace=wrap;html=1;backgroundOutline=1;fontSize=10;" parent="9" vertex="1">
                    <mxGeometry x="178" y="70" width="172" height="30" as="geometry"/>
                </mxCell>
                <mxCell id="21" value="api connect" style="shape=process;whiteSpace=wrap;html=1;backgroundOutline=1;fontSize=10;" parent="9" vertex="1">
                    <mxGeometry x="178" y="110" width="172" height="30" as="geometry"/>
                </mxCell>
                <mxCell id="22" value="event-streams" style="shape=process;whiteSpace=wrap;html=1;backgroundOutline=1;fontSize=10;" parent="9" vertex="1">
                    <mxGeometry x="178" y="235" width="172" height="30" as="geometry"/>
                </mxCell>
                <mxCell id="23" value="MQ" style="shape=process;whiteSpace=wrap;html=1;backgroundOutline=1;fontSize=10;" parent="9" vertex="1">
                    <mxGeometry x="178" y="275" width="172" height="30" as="geometry"/>
                </mxCell>
                <mxCell id="26" value="" style="shape=image;verticalLabelPosition=bottom;labelBackgroundColor=#ffffff;verticalAlign=top;aspect=fixed;imageAspect=0;image=data:image/png,iVBORw0KGgoAAAANSUhEUgAAAE4AAABOCAYAAACOqiAdAAATvklEQVR4Ad2cWZBbVXrHoYYJqeSFqjyk8pB5SqXykJekKm9Jka2ooYIB92YwmMGUgQEb7zbudnfbGNvYDoYMZvDY2HgAM2A8hfEExgaMARu33d7dllprS62ltUu9aJda+qf+R7pX92pvtSSo3Kpb9+res/7ud77zne+cozvwIzmyANKZLBKpDOJJnrP5MyOe8R3D/FiOO37IgqTSGXgm49A7p3FjbBJXTEEM6QK4MOpXnXzGdwzDsO5QDIz7Qx5tBzebycI/lRAgvrzhxplbHgybAtC5Z2CfjMIdicMXS8Afz5285zO+YxiGZRzGJUymxTTbfbQNXCSehmFiRkjSJVMA2olpjIci8ORBeaMJ1HMSJOMwLtO4ZAxgSOcXkhiOp9vGry3gtLYpnL7mwtWxEFwzsboA1QNRCkOJvGYJiTyYVzuOloKjLrqg84vmNR6KNh2YBE662kJRkdf3o35MBGMt5dcScKnZLK6ZQ/hW44M1mGuOUuV49UTj4lQ+a9Y9m7ElGME3t32iDCxLK46mg6MZQWhDhoBQ6uWACNMiCwTjSSGFbGoT4RicM1E4pqOwTUYwnj95z2d8xzAMWy7N4mcMd2UsKDqQWGK26eyaCm4yksR5rR+3HZNCgRdXhpLmjyWRyeakwBuJw+SfgcE3jVHPFLSeSWjc5U++YxiGZRz7VKQmQEofy3JO40NwJtlUeE0Dx6/KAurc0yUV8kUTCKfSyGaz4p0vEod7JgadZ6oiqEoAlc913ik4p6NlP5Lyo+k9Mzin8aOZktcUcDOxFM5pfRh1lUILxlOQ9UwWMAdm5gVLCU66N/qmRdNWwiq+Z9lYxqloqimSN29whDJsCOKWfbJE0qjDJNU8nUhB4wo1HZoEj1cCZPMshib9vu2YEmWVP+Q8EM4bnM4xjcvmYElhp5I5Y5QdgTccg7ZGs8y9D0GvGYH2+y+hPfsZRr/+X2i/PQXtxXPQWmzQeGtLq57Nd6ay6XN1LAiWeb7HvMA5/FF8PeIVekb6qrxOJlJC0ghtLFi7sppADIZPj8C85xlYty2GdesjGN+6CJb+boxt6oK5dxHM/Y/A9PpaGG/fhMYXriq57ERc4fKGtnM6Jso87ovMi13D4OjF+F7rh9EbVklbIJ7rvdKZTG1ozgC0338Fy56nYR3sgnVLT8lp6evC2MYO1Wn69WZob9+Cxl256bMXnqggeSZvWJSddWj0aBicxRvBdWtIBU3otGxWuIcstSTN6oDxyHZYtywqgVUM0LKpUwWOIM1blkD31QlovNMVpY+SR9tP2Rqk++vjIZhc4Ua5oSFwNMO+0/jEQFsqCK+JvKuH5oZSaRffjzrcGHtrE6xbugU02/YlsG1/vCrAYqkTvzc8CMvpj6B1+ivmZ/SX9vQsqy3E0YVXtinnSrAhcDpnziuh7MFm8p3BTCIFbQUjlgC1djfGDg7AOtgtTtfBDfAe3w3vx6/AsfeZivDKNVkheX3dGP3uVEVwzNM6qVYnBMey00WltTfmFJgzuGQ6izM3PSgetFMKaXqMVrH+WYnRL44X4PR3wH9ir3xO7F9TeFes79hRFOk66bdloAcab3VjulxPa5uMirokG3CKzhmcKxTHOa1fpTciqdxYMBhNVP3ybFIW9poSlMEuuN/pk8E5X3++8E4Ko7hKoMpdjW9sgNZTWd+NBWZUZZZUDOvCOs31mDM4rWMKBkVPSscie1COP02+ygWntBlfX1EChmaHbecTsL78WMk7GXAeXjlg8rMXF8JwZajih6P6UKoWCdxYIAJNAz68OYMTvi6FM5LmB5toPDVbsdBCt9kmcnpNIUHFYGr9liFVaLK64/urloEeFwmYdKW9xzrN9ZgzuAt6v8q1E0/nmqk1WMMoPX1M7kVrAar03tJbatMpYRrf7IPG7qkIj1InAZOulMIhfYvAOf1RfHXTjavmoPBx0T3EjHmdzWZFM6VUVTv1nx6q2RQrAZOe1wI3NrgYGg7NqpSF/j0JmnS9Zgni61te4a2ut6OoS+KG9AExq8SZpVs2xVeLJYSET8VTVQurcU9B/8lBGZxloBvWgdJRggSo0tXSV9yzdsK8QWEc93dDY7VXLYslWGqa0EHBuvGMJetzetYJzi8nrHcXeid6PHhwEF/tK2tMFph3/BKmlV0wruiEYUWHuPLetKoLY705Q7gSMOk5wZnXd8KYT4fx5fOFLpg3dENjNFctC91akqRJV047yuDq9BbPGRz9+VKGkhkyMR0tW1jh8bg0BN3uTTA8/zAsW1fA8/vD8J18H+5jB2Ba/7hccfO6LhCMBKn4ynemtTlQ+mcXwLF/B7yfvidO5zuvQf/MAyIt5qW5cL6iN4Ye5GL3e1vAKXVEJN8x0AtbVuK0eug3/gLGF7owc/Ny2Y4rPHodhucezAFc2QXrYJkmPNgjS9n4ng1Ih0vdQtlMBhPvvCqkWb9+CTSjhrJlote4feB0haZqnyr4uuLpDDhicExGSgvpj0C3pxfWXeuQClbvtaauDcHw/EMCnnl9qZeEz9i8Jw7vQTZdZdJ5dhbujw+KD6HbubGs+6mcy6l1EjdncFPQf3oMpnWPIWrSlpW04odxlw2G5QsFvLFNhSbLe+oxNs3sbBVoUoKc1/jktzAs74DmoyMlTfYHA8fxnaTjohWaKnXb6LaVsO3tBWbVvdTRo0exYMECXBi6iFnlu9lZ2F4fyEnd2oLUmdd2iaYe+vYzCY24BgIB9PX14emnn4bT6VS9ixhGYFr7KHQvvfDjAVdX52CyQv/iUkwNn1VVyO/346677sKdd96Je+65Bzdu3FC/P3VcgDOtyeu6wR7wnpKbnplUhd29e7dIh2ktXLhQ9S4Ti8D68iroNz0FjWFMpUZ+MB1HfSBJHKf8ePjCav+b9uYt6NcuRtLvVlWIknHHHXeICt999924dOmS6r3/849y4FZ2IWfrdcO0uhOmNY+qwvFHf3+/nNa9996res8mbXlpOYzrl2D02nUVOJO/dEJH52qVOaLQcTdtBa8v50t5FBvA2hEN9OseQ9xpVVWIP3bs2IH77rsPH374IVIp9VSdDG61QuJWU+IWl6Rjs9mwdOlSdHV1YWRkRPU+k0rBsu0FGNY/Ae3NERW4cnYc69RyO47LCqQhFyWPk8w8lOaI1uaGvm8ZPCfeV1Wo1g//58dyOm6dQset64JpzSOIu+y1osvvM9EwrNtXiTJorBOqsllC6pED68I6yeCaOXKw+6MYNgTAeQYOiJV2UHI2N+FhV5gk9Ivpdm2E9aXnQH1T1zE7C8vW58uCY68aOHW8rmQYaPrGMIyrFmF0x7oSHx3XoUiqhlfWhetcOA6/ag4VJs9r5FbXyIFpSOs9uDZkQuFW4gQND04FKqVOM+6E8ZkHMHX5uxpFyL2279smoBlWdKqN4MEe8BmN6HoP09rFMD67AFqDSVUmznwpofGebiXWiQ1HqmM9+dQNTkps1D4Ng7fQQfhiybyHBKrpQK13BtoDr4LDo+mr54GM2iyR0sukkvCceE8ev45tLNhw0rCLz6QxaXzcKEUtuSY9Tli2rxZhtft3g2VQfsxyA3zWhXWa6zFncO5QXEzo0vMrfT3JJ1fiOnf4oN21UVTEsnMN0iH1CGLq+iVYBp+FcWUODMerEqziK98RnnnD47C/ua2knu5jh2DuXSo+wOiuF6Fx+FTQaPgWe4BZB06ocwHkXI85g+O6C/qu6HKWwE3GC70jlyAov7I2GMPo/7wE4+pF0D/3EHRP3QfdE/8O/bL7xcCfMOg1EbZbDe8wJY9hOfyiJOue/E/ofvEfYoAvPC6re6Db2w/mqSwD78fKuJO46JF1aWQtyZzB8csY3WGxaFn5BSU/FqWPX1dZcK1tAqa9q8HhE8ed1Fc8eU+XEpc6FEtYpd9iWURvUTprO0U6pr2rwLyUeUv3xUsi2Jty4TXr0sjREDhmxAlpa6ggdZQ+eoN5lNh1Dg/M+/tkOONbe8CzEpx6nxenwzy0jlLXebEJwrJy+T+X2jZ6NAzO5o/iskm9SimUX2xDB6dydSWnBY3v7po3qFpATYe3Q+NU67ZyBi9127ApCIunTlOpDN2GwdE3f2E0oOphJZ3HJqxabTkRhOGD11oOjnloJoJyU2UZlDanVL6xQFjst6h3fqEMt8bWjkgJcTvR2REvlB4TqXA0NJW6Tv/7/VXBfbLioXnPgjEPSacx72JjVzTRqSjO3vaKrVBSPRq5NixxUmbj3ohYg6E0TyR4XHYgwdN/cqAiuPEtPbj/b/8SgT8erjj3aunvgMukqQpXf+JtAY55llvykGuiAbDM8z3mDY5dudigNh4qsZMI0B2Oi5XitaYH9z74D4jG4vCfPADnr9eJhYWSTnO+sRrhkXP4cM/mivAZlnnoOacQLl3OSvXBpawsayPmRzHoeYNjgtzb8N1tn1gaL0mb8squ3/r5kaqVvrnxYbz55j5Rvkw8gpjlNqLmW4iZb2I2Mg2LxYI/LPvXqmkwD6UDQlkGjXMaZ0d8oqzFEBr53RRwzJiWyDcjPtFZlCu8/dS7VStt2NyJP7vrTgwPDyMejyOT4XxGFul0GuPj43jwgf+CYXNH1TSYhxIW7ylpJn9YlC1vLTXCqSRO08AxZe7e416HG2Warf2Lo1Urzaa2/J//Tjgn6a9btmyZcIs/+uij4tnDf//XGOOauiqjC9vp91Tg2KPS18btSc3eWdhUcNJnuaj3izGg8us7znxctdJCR/V14M//JOdap0tcOn/6k5/gt4/9S834jjMfqcBd0Oe2ZErlaua1JeCofMfcYWGZ09XO5jIxfKZqjyhJ0tfLf45/+5u/wp/+9C5x/tPP/gIv3f+PNaFxWaxz6LTIi3lyVGB2h5vSEZQD3hJwUkbcxcIlVLSbTNevwDpQ2fshgeNV19eBy2seEKdm08I6oPWItE1XL4q8mGezdtBIdSm+thSclBk3ZFy7cB3W/s76IFTRY0rA8j1n/zd34vLQraZs/pDKXe3aFnAsQHjcCEtvJ6xz8ITIYKqAtGzuFmtOLJs6EAsFqtW1qe/aAy6bxdT1i+DKcS6eEYtrGljmJYOkhA32QIYm0uyoudSimeTaAi4Z8MD1u/3yNiMJnqg4JZAQyy22UUoaQfXnfHdyfALbzGX/OReV6/19QLbx3TJzAdsCcFy3z5mPWaQngwhrrkK/7Odwvr0HtvyKc042qyqfl0JZEgkyf6qlSh1PtTiRkzrPL4TzyK+QcDuQSSaATCZXlrkQqTNs08FxCdaM5iocv3kF5o1LxPIFuse5EGZcsVSfq825HUlIkQJcJaDyc0rdQLeQ3vGtjyg6m0UwruoRk9fmF5fAsm0lAmdOghM4qGexTp3ApGBNBycS5vL9VAqZRByZeAyZWFQU3ra9sMfBtvNJ8JT1FptlXndRkuQmWKEJ215ZCtuup+T4tpcXIxOP5s5EDJlkMrfgp5njLIkaMD9/nCKdum5tOwr7tRyvLYdj7y/lio+/vES+V8FU6Dnb9ifkMIzreK2woYRpt/NojcRVqIF991K54s4318K5b7X823Vkm3xfCZz7g/+WwzAu05DC2vcsrZBrax63FdzEoX552OV6uw8TB16UKx44/YF8L8Eovk6ePymHYVymkQvTjYnDg60hVCHVtoLzf/6uvKHXdbgfroO9csUjuisVvb8CzmA34jZ9AfzBXjCN3LsuBE7NbYFPBR51P24ruJkb5+XxqutQf0FiBruRDnlrgpuNTMphKG0yuIEuMO12Hm0FF7ebYR3IjVddhzYXKj7YJby80sbf4iYqNUd6guX4lNhD+aY60ImEu/5lYM0A3FZwmVgY1n56cRfBdXATXO8M5ppafwfEu/yO6bLgBrvFkrFc/B4BTQmOi3faebQVHCuWk5hFcB3YCNfh3OSLpe8hZBJRWf9Jekv1BweDXcgkYmBYvs/pyI25Pf0Dne1kJvJqP7j8vz2Iih8eEBAsvQ8im0rK+kuAG+hQzXRxK3o2nYKld0Ee3ABcB9krLxLx2k2u/eDECKEbnuO/gksC1/cQsmmCKzg6/X84hOCXChNlsEvAtQzkJmwY13Nsr9zL/r8Fx6FX8OuPclI10Imp4S/kpmrd9riQJknxU7ridj3iTmNBCgc7c2F25oxoSuz0tW/yTb8bgdPvieFduwC2RuK4hzURQ3rSj6jpJvyf7Ms3qS5wYG7f+YSon2ROcMKZEmfJ97jsABKuMXFa8xJmFeCScO7PGc3uIwMiDfsrT+aatJDWRSIv5sm8qTeFp6YFNFsCjrooGXAhohvG9OVTmL78BaavfCnO8Mj53EA8OgPnG6uEvvKdeCvfVHOmCgf/jJ8KemDbvUyEYTMmXN+nvxG/GTcTnRFpMU0pfZHX8CmRd9I/IaS0BdzaO8hnBViZ4NljsGxeKJoh3UuR0UsqHed+9+VchWfTcL+3QwWOYYVLapBOzIUiraSnvTYc69ESiVN+YTbZpMeGsOYCgmc+hP/zQwiefhfBL49i8uJnSLitoA0WOlvYs+899qqcBO8luy509mPhoGQcxmUaTEuk+dXvQMlLuKxCTcgJtOim5eCqlTsV9GLy2+Owv/psXqq6QdNE6KZ8RJopfCb+GWfLIuGKYhzG/SGPtoLjZpGY3YjJ70/Cc3QXHHQNvbUOzv0bhEEb+OM75Zf1Z2bBd+xMGJZxHPtWiTQmL5xEzKavfyNKk2i3F1wyIXYBpsNTKD7ZpGsdDMPxanFc7iwUcwy1Emji+/8D+X1kZKqPnR4AAAAASUVORK5CYII=;" parent="9" vertex="1">
                    <mxGeometry x="24" y="20" width="30" height="30" as="geometry"/>
                </mxCell>
                <mxCell id="11" value="OpenShift Cluster" style="swimlane;horizontal=0;fillColor=#f8cecc;strokeColor=#b85450;" parent="1" vertex="1">
                    <mxGeometry x="402" y="460" width="410" height="300" as="geometry"/>
                </mxCell>
                <mxCell id="13" value="ArgoCD" style="shape=process;whiteSpace=wrap;html=1;backgroundOutline=1;" parent="11" vertex="1">
                    <mxGeometry x="38" y="20" width="72" height="40" as="geometry"/>
                </mxCell>
                <mxCell id="17" value="production-ns" style="rounded=0;whiteSpace=wrap;html=1;fillColor=#f5f5f5;fontColor=#333333;strokeColor=#666666;verticalAlign=top;align=left;" parent="11" vertex="1">
                    <mxGeometry x="120" y="30" width="260" height="250" as="geometry"/>
                </mxCell>
                <mxCell id="24" value="event-streams" style="shape=process;whiteSpace=wrap;html=1;backgroundOutline=1;fontSize=10;" parent="11" vertex="1">
                    <mxGeometry x="168" y="55" width="172" height="30" as="geometry"/>
                </mxCell>
                <mxCell id="25" value="MQ" style="shape=process;whiteSpace=wrap;html=1;backgroundOutline=1;fontSize=10;" parent="11" vertex="1">
                    <mxGeometry x="168" y="95" width="172" height="30" as="geometry"/>
                </mxCell>
                <mxCell id="27" value="" style="shape=image;verticalLabelPosition=bottom;labelBackgroundColor=#ffffff;verticalAlign=top;aspect=fixed;imageAspect=0;image=data:image/png,iVBORw0KGgoAAAANSUhEUgAAAE4AAABOCAYAAACOqiAdAAATvklEQVR4Ad2cWZBbVXrHoYYJqeSFqjyk8pB5SqXykJekKm9Jka2ooYIB92YwmMGUgQEb7zbudnfbGNvYDoYMZvDY2HgAM2A8hfEExgaMARu33d7dllprS62ltUu9aJda+qf+R7pX92pvtSSo3Kpb9+res/7ud77zne+cozvwIzmyANKZLBKpDOJJnrP5MyOe8R3D/FiOO37IgqTSGXgm49A7p3FjbBJXTEEM6QK4MOpXnXzGdwzDsO5QDIz7Qx5tBzebycI/lRAgvrzhxplbHgybAtC5Z2CfjMIdicMXS8Afz5285zO+YxiGZRzGJUymxTTbfbQNXCSehmFiRkjSJVMA2olpjIci8ORBeaMJ1HMSJOMwLtO4ZAxgSOcXkhiOp9vGry3gtLYpnL7mwtWxEFwzsboA1QNRCkOJvGYJiTyYVzuOloKjLrqg84vmNR6KNh2YBE662kJRkdf3o35MBGMt5dcScKnZLK6ZQ/hW44M1mGuOUuV49UTj4lQ+a9Y9m7ElGME3t32iDCxLK46mg6MZQWhDhoBQ6uWACNMiCwTjSSGFbGoT4RicM1E4pqOwTUYwnj95z2d8xzAMWy7N4mcMd2UsKDqQWGK26eyaCm4yksR5rR+3HZNCgRdXhpLmjyWRyeakwBuJw+SfgcE3jVHPFLSeSWjc5U++YxiGZRz7VKQmQEofy3JO40NwJtlUeE0Dx6/KAurc0yUV8kUTCKfSyGaz4p0vEod7JgadZ6oiqEoAlc913ik4p6NlP5Lyo+k9Mzin8aOZktcUcDOxFM5pfRh1lUILxlOQ9UwWMAdm5gVLCU66N/qmRdNWwiq+Z9lYxqloqimSN29whDJsCOKWfbJE0qjDJNU8nUhB4wo1HZoEj1cCZPMshib9vu2YEmWVP+Q8EM4bnM4xjcvmYElhp5I5Y5QdgTccg7ZGs8y9D0GvGYH2+y+hPfsZRr/+X2i/PQXtxXPQWmzQeGtLq57Nd6ay6XN1LAiWeb7HvMA5/FF8PeIVekb6qrxOJlJC0ghtLFi7sppADIZPj8C85xlYty2GdesjGN+6CJb+boxt6oK5dxHM/Y/A9PpaGG/fhMYXriq57ERc4fKGtnM6Jso87ovMi13D4OjF+F7rh9EbVklbIJ7rvdKZTG1ozgC0338Fy56nYR3sgnVLT8lp6evC2MYO1Wn69WZob9+Cxl256bMXnqggeSZvWJSddWj0aBicxRvBdWtIBU3otGxWuIcstSTN6oDxyHZYtywqgVUM0LKpUwWOIM1blkD31QlovNMVpY+SR9tP2Rqk++vjIZhc4Ua5oSFwNMO+0/jEQFsqCK+JvKuH5oZSaRffjzrcGHtrE6xbugU02/YlsG1/vCrAYqkTvzc8CMvpj6B1+ivmZ/SX9vQsqy3E0YVXtinnSrAhcDpnziuh7MFm8p3BTCIFbQUjlgC1djfGDg7AOtgtTtfBDfAe3w3vx6/AsfeZivDKNVkheX3dGP3uVEVwzNM6qVYnBMey00WltTfmFJgzuGQ6izM3PSgetFMKaXqMVrH+WYnRL44X4PR3wH9ir3xO7F9TeFes79hRFOk66bdloAcab3VjulxPa5uMirokG3CKzhmcKxTHOa1fpTciqdxYMBhNVP3ybFIW9poSlMEuuN/pk8E5X3++8E4Ko7hKoMpdjW9sgNZTWd+NBWZUZZZUDOvCOs31mDM4rWMKBkVPSscie1COP02+ygWntBlfX1EChmaHbecTsL78WMk7GXAeXjlg8rMXF8JwZajih6P6UKoWCdxYIAJNAz68OYMTvi6FM5LmB5toPDVbsdBCt9kmcnpNIUHFYGr9liFVaLK64/urloEeFwmYdKW9xzrN9ZgzuAt6v8q1E0/nmqk1WMMoPX1M7kVrAar03tJbatMpYRrf7IPG7qkIj1InAZOulMIhfYvAOf1RfHXTjavmoPBx0T3EjHmdzWZFM6VUVTv1nx6q2RQrAZOe1wI3NrgYGg7NqpSF/j0JmnS9Zgni61te4a2ut6OoS+KG9AExq8SZpVs2xVeLJYSET8VTVQurcU9B/8lBGZxloBvWgdJRggSo0tXSV9yzdsK8QWEc93dDY7VXLYslWGqa0EHBuvGMJetzetYJzi8nrHcXeid6PHhwEF/tK2tMFph3/BKmlV0wruiEYUWHuPLetKoLY705Q7gSMOk5wZnXd8KYT4fx5fOFLpg3dENjNFctC91akqRJV047yuDq9BbPGRz9+VKGkhkyMR0tW1jh8bg0BN3uTTA8/zAsW1fA8/vD8J18H+5jB2Ba/7hccfO6LhCMBKn4ynemtTlQ+mcXwLF/B7yfvidO5zuvQf/MAyIt5qW5cL6iN4Ye5GL3e1vAKXVEJN8x0AtbVuK0eug3/gLGF7owc/Ny2Y4rPHodhucezAFc2QXrYJkmPNgjS9n4ng1Ih0vdQtlMBhPvvCqkWb9+CTSjhrJlote4feB0haZqnyr4uuLpDDhicExGSgvpj0C3pxfWXeuQClbvtaauDcHw/EMCnnl9qZeEz9i8Jw7vQTZdZdJ5dhbujw+KD6HbubGs+6mcy6l1EjdncFPQf3oMpnWPIWrSlpW04odxlw2G5QsFvLFNhSbLe+oxNs3sbBVoUoKc1/jktzAs74DmoyMlTfYHA8fxnaTjohWaKnXb6LaVsO3tBWbVvdTRo0exYMECXBi6iFnlu9lZ2F4fyEnd2oLUmdd2iaYe+vYzCY24BgIB9PX14emnn4bT6VS9ixhGYFr7KHQvvfDjAVdX52CyQv/iUkwNn1VVyO/346677sKdd96Je+65Bzdu3FC/P3VcgDOtyeu6wR7wnpKbnplUhd29e7dIh2ktXLhQ9S4Ti8D68iroNz0FjWFMpUZ+MB1HfSBJHKf8ePjCav+b9uYt6NcuRtLvVlWIknHHHXeICt999924dOmS6r3/849y4FZ2IWfrdcO0uhOmNY+qwvFHf3+/nNa9996res8mbXlpOYzrl2D02nUVOJO/dEJH52qVOaLQcTdtBa8v50t5FBvA2hEN9OseQ9xpVVWIP3bs2IH77rsPH374IVIp9VSdDG61QuJWU+IWl6Rjs9mwdOlSdHV1YWRkRPU+k0rBsu0FGNY/Ae3NERW4cnYc69RyO47LCqQhFyWPk8w8lOaI1uaGvm8ZPCfeV1Wo1g//58dyOm6dQset64JpzSOIu+y1osvvM9EwrNtXiTJorBOqsllC6pED68I6yeCaOXKw+6MYNgTAeQYOiJV2UHI2N+FhV5gk9Ivpdm2E9aXnQH1T1zE7C8vW58uCY68aOHW8rmQYaPrGMIyrFmF0x7oSHx3XoUiqhlfWhetcOA6/ag4VJs9r5FbXyIFpSOs9uDZkQuFW4gQND04FKqVOM+6E8ZkHMHX5uxpFyL2279smoBlWdKqN4MEe8BmN6HoP09rFMD67AFqDSVUmznwpofGebiXWiQ1HqmM9+dQNTkps1D4Ng7fQQfhiybyHBKrpQK13BtoDr4LDo+mr54GM2iyR0sukkvCceE8ev45tLNhw0rCLz6QxaXzcKEUtuSY9Tli2rxZhtft3g2VQfsxyA3zWhXWa6zFncO5QXEzo0vMrfT3JJ1fiOnf4oN21UVTEsnMN0iH1CGLq+iVYBp+FcWUODMerEqziK98RnnnD47C/ua2knu5jh2DuXSo+wOiuF6Fx+FTQaPgWe4BZB06ocwHkXI85g+O6C/qu6HKWwE3GC70jlyAov7I2GMPo/7wE4+pF0D/3EHRP3QfdE/8O/bL7xcCfMOg1EbZbDe8wJY9hOfyiJOue/E/ofvEfYoAvPC6re6Db2w/mqSwD78fKuJO46JF1aWQtyZzB8csY3WGxaFn5BSU/FqWPX1dZcK1tAqa9q8HhE8ed1Fc8eU+XEpc6FEtYpd9iWURvUTprO0U6pr2rwLyUeUv3xUsi2Jty4TXr0sjREDhmxAlpa6ggdZQ+eoN5lNh1Dg/M+/tkOONbe8CzEpx6nxenwzy0jlLXebEJwrJy+T+X2jZ6NAzO5o/iskm9SimUX2xDB6dydSWnBY3v7po3qFpATYe3Q+NU67ZyBi9127ApCIunTlOpDN2GwdE3f2E0oOphJZ3HJqxabTkRhOGD11oOjnloJoJyU2UZlDanVL6xQFjst6h3fqEMt8bWjkgJcTvR2REvlB4TqXA0NJW6Tv/7/VXBfbLioXnPgjEPSacx72JjVzTRqSjO3vaKrVBSPRq5NixxUmbj3ohYg6E0TyR4XHYgwdN/cqAiuPEtPbj/b/8SgT8erjj3aunvgMukqQpXf+JtAY55llvykGuiAbDM8z3mDY5dudigNh4qsZMI0B2Oi5XitaYH9z74D4jG4vCfPADnr9eJhYWSTnO+sRrhkXP4cM/mivAZlnnoOacQLl3OSvXBpawsayPmRzHoeYNjgtzb8N1tn1gaL0mb8squ3/r5kaqVvrnxYbz55j5Rvkw8gpjlNqLmW4iZb2I2Mg2LxYI/LPvXqmkwD6UDQlkGjXMaZ0d8oqzFEBr53RRwzJiWyDcjPtFZlCu8/dS7VStt2NyJP7vrTgwPDyMejyOT4XxGFul0GuPj43jwgf+CYXNH1TSYhxIW7ylpJn9YlC1vLTXCqSRO08AxZe7e416HG2Warf2Lo1Urzaa2/J//Tjgn6a9btmyZcIs/+uij4tnDf//XGOOauiqjC9vp91Tg2KPS18btSc3eWdhUcNJnuaj3izGg8us7znxctdJCR/V14M//JOdap0tcOn/6k5/gt4/9S834jjMfqcBd0Oe2ZErlaua1JeCofMfcYWGZ09XO5jIxfKZqjyhJ0tfLf45/+5u/wp/+9C5x/tPP/gIv3f+PNaFxWaxz6LTIi3lyVGB2h5vSEZQD3hJwUkbcxcIlVLSbTNevwDpQ2fshgeNV19eBy2seEKdm08I6oPWItE1XL4q8mGezdtBIdSm+thSclBk3ZFy7cB3W/s76IFTRY0rA8j1n/zd34vLQraZs/pDKXe3aFnAsQHjcCEtvJ6xz8ITIYKqAtGzuFmtOLJs6EAsFqtW1qe/aAy6bxdT1i+DKcS6eEYtrGljmJYOkhA32QIYm0uyoudSimeTaAi4Z8MD1u/3yNiMJnqg4JZAQyy22UUoaQfXnfHdyfALbzGX/OReV6/19QLbx3TJzAdsCcFy3z5mPWaQngwhrrkK/7Odwvr0HtvyKc042qyqfl0JZEgkyf6qlSh1PtTiRkzrPL4TzyK+QcDuQSSaATCZXlrkQqTNs08FxCdaM5iocv3kF5o1LxPIFuse5EGZcsVSfq825HUlIkQJcJaDyc0rdQLeQ3vGtjyg6m0UwruoRk9fmF5fAsm0lAmdOghM4qGexTp3ApGBNBycS5vL9VAqZRByZeAyZWFQU3ra9sMfBtvNJ8JT1FptlXndRkuQmWKEJ215ZCtuup+T4tpcXIxOP5s5EDJlkMrfgp5njLIkaMD9/nCKdum5tOwr7tRyvLYdj7y/lio+/vES+V8FU6Dnb9ifkMIzreK2woYRpt/NojcRVqIF991K54s4318K5b7X823Vkm3xfCZz7g/+WwzAu05DC2vcsrZBrax63FdzEoX552OV6uw8TB16UKx44/YF8L8Eovk6ePymHYVymkQvTjYnDg60hVCHVtoLzf/6uvKHXdbgfroO9csUjuisVvb8CzmA34jZ9AfzBXjCN3LsuBE7NbYFPBR51P24ruJkb5+XxqutQf0FiBruRDnlrgpuNTMphKG0yuIEuMO12Hm0FF7ebYR3IjVddhzYXKj7YJby80sbf4iYqNUd6guX4lNhD+aY60ImEu/5lYM0A3FZwmVgY1n56cRfBdXATXO8M5ppafwfEu/yO6bLgBrvFkrFc/B4BTQmOi3faebQVHCuWk5hFcB3YCNfh3OSLpe8hZBJRWf9Jekv1BweDXcgkYmBYvs/pyI25Pf0Dne1kJvJqP7j8vz2Iih8eEBAsvQ8im0rK+kuAG+hQzXRxK3o2nYKld0Ee3ABcB9krLxLx2k2u/eDECKEbnuO/gksC1/cQsmmCKzg6/X84hOCXChNlsEvAtQzkJmwY13Nsr9zL/r8Fx6FX8OuPclI10Imp4S/kpmrd9riQJknxU7ridj3iTmNBCgc7c2F25oxoSuz0tW/yTb8bgdPvieFduwC2RuK4hzURQ3rSj6jpJvyf7Ms3qS5wYG7f+YSon2ROcMKZEmfJ97jsABKuMXFa8xJmFeCScO7PGc3uIwMiDfsrT+aatJDWRSIv5sm8qTeFp6YFNFsCjrooGXAhohvG9OVTmL78BaavfCnO8Mj53EA8OgPnG6uEvvKdeCvfVHOmCgf/jJ8KemDbvUyEYTMmXN+nvxG/GTcTnRFpMU0pfZHX8CmRd9I/IaS0BdzaO8hnBViZ4NljsGxeKJoh3UuR0UsqHed+9+VchWfTcL+3QwWOYYVLapBOzIUiraSnvTYc69ESiVN+YTbZpMeGsOYCgmc+hP/zQwiefhfBL49i8uJnSLitoA0WOlvYs+899qqcBO8luy509mPhoGQcxmUaTEuk+dXvQMlLuKxCTcgJtOim5eCqlTsV9GLy2+Owv/psXqq6QdNE6KZ8RJopfCb+GWfLIuGKYhzG/SGPtoLjZpGY3YjJ70/Cc3QXHHQNvbUOzv0bhEEb+OM75Zf1Z2bBd+xMGJZxHPtWiTQmL5xEzKavfyNKk2i3F1wyIXYBpsNTKD7ZpGsdDMPxanFc7iwUcwy1Emji+/8D+X1kZKqPnR4AAAAASUVORK5CYII=;" parent="11" vertex="1">
                    <mxGeometry x="25" y="10" width="30" height="30" as="geometry"/>
                </mxCell>
                <mxCell id="36" style="edgeStyle=orthogonalEdgeStyle;html=1;entryX=0;entryY=0.5;entryDx=0;entryDy=0;fontSize=10;curved=1;exitX=0.5;exitY=1;exitDx=0;exitDy=0;" parent="11" source="13" target="17" edge="1">
                    <mxGeometry relative="1" as="geometry">
                        <mxPoint x="89" y="-370" as="sourcePoint"/>
                        <mxPoint x="-72" y="45" as="targetPoint"/>
                    </mxGeometry>
                </mxCell>
                <mxCell id="37" value="API gateway" style="shape=process;whiteSpace=wrap;html=1;backgroundOutline=1;fontSize=10;" vertex="1" parent="11">
                    <mxGeometry x="168" y="140" width="172" height="30" as="geometry"/>
                </mxCell>
                <mxCell id="38" value="event gateway" style="shape=process;whiteSpace=wrap;html=1;backgroundOutline=1;fontSize=10;" vertex="1" parent="11">
                    <mxGeometry x="168" y="190" width="172" height="30" as="geometry"/>
                </mxCell>
                <mxCell id="29" style="edgeStyle=orthogonalEdgeStyle;html=1;entryX=1;entryY=0.5;entryDx=0;entryDy=0;fontSize=10;curved=1;" parent="1" source="12" target="4" edge="1">
                    <mxGeometry relative="1" as="geometry"/>
                </mxCell>
                <mxCell id="30" style="edgeStyle=orthogonalEdgeStyle;html=1;entryX=1;entryY=0.75;entryDx=0;entryDy=0;fontSize=10;curved=1;exitX=0.5;exitY=1;exitDx=0;exitDy=0;" parent="1" source="27" target="4" edge="1">
                    <mxGeometry relative="1" as="geometry">
                        <mxPoint x="450" y="70" as="sourcePoint"/>
                        <mxPoint x="330" y="305" as="targetPoint"/>
                    </mxGeometry>
                </mxCell>
                <mxCell id="31" style="edgeStyle=orthogonalEdgeStyle;html=1;entryX=1;entryY=0.5;entryDx=0;entryDy=0;fontSize=10;curved=1;exitX=0.5;exitY=1;exitDx=0;exitDy=0;" parent="1" source="12" target="5" edge="1">
                    <mxGeometry relative="1" as="geometry">
                        <mxPoint x="460" y="80" as="sourcePoint"/>
                        <mxPoint x="340" y="315" as="targetPoint"/>
                    </mxGeometry>
                </mxCell>
                <mxCell id="32" style="edgeStyle=orthogonalEdgeStyle;html=1;entryX=0;entryY=0.5;entryDx=0;entryDy=0;fontSize=10;curved=1;" parent="1" target="14" edge="1">
                    <mxGeometry relative="1" as="geometry">
                        <mxPoint x="490" y="80" as="sourcePoint"/>
                        <mxPoint x="350" y="325" as="targetPoint"/>
                    </mxGeometry>
                </mxCell>
                <mxCell id="33" style="edgeStyle=orthogonalEdgeStyle;html=1;entryX=0;entryY=0.5;entryDx=0;entryDy=0;fontSize=10;curved=1;" parent="1" target="15" edge="1">
                    <mxGeometry relative="1" as="geometry">
                        <mxPoint x="490" y="80" as="sourcePoint"/>
                        <mxPoint x="542" y="130" as="targetPoint"/>
                    </mxGeometry>
                </mxCell>
                <mxCell id="34" style="edgeStyle=orthogonalEdgeStyle;html=1;entryX=1;entryY=0.75;entryDx=0;entryDy=0;fontSize=10;curved=1;exitX=0.25;exitY=1;exitDx=0;exitDy=0;" parent="1" source="13" target="5" edge="1">
                    <mxGeometry relative="1" as="geometry">
                        <mxPoint x="491" y="90" as="sourcePoint"/>
                        <mxPoint x="330" y="505" as="targetPoint"/>
                        <Array as="points">
                            <mxPoint x="458" y="530"/>
                            <mxPoint x="390" y="530"/>
                            <mxPoint x="390" y="538"/>
                        </Array>
                    </mxGeometry>
                </mxCell>
            </root>
        </mxGraphModel>
    </diagram>
</mxfile>